<svg width="30" height="19" viewBox="0 0 30 19" fill="none" xmlns="http://www.w3.org/2000/svg">
<path d="M24.0822 0.191566L23.6915 1.06578C23.6915 1.06578 21.8386 5.18522 19.5826 7.78039C18.8574 8.62006 18.4891 8.87286 18.0886 8.87286C17.7665 8.87286 17.6177 8.59179 17.6177 7.83534V0H10.603V0.600212C10.603 1.47443 11.8847 1.67227 11.8847 4.04054V8.92664C11.8847 9.91077 11.8334 10.2915 11.3894 10.2915C10.21 10.2915 7.40991 6.06101 5.83755 1.25735L5.44681 0H0.864364C0.366371 0 0 0.354867 0 0.874214C0 1.83008 1.07399 6.251 5.28818 12.1766C8.11527 16.1622 11.8334 18.3188 15.1832 18.3188C17.2265 18.3188 17.7223 17.964 17.7223 17.0643V14.0063C17.7223 13.2412 18.0106 12.9138 18.4306 12.9138C18.9016 12.9138 19.7319 13.0708 21.6751 15.0709C21.6774 15.0709 24.7902 18.3188 24.7902 18.3188H29.241C29.634 18.3188 30 18.1289 30 17.4462C30 16.5437 28.8746 14.9339 27.1463 13.0233C26.4405 12.0408 25.2882 10.975 24.9218 10.4827C24.3994 9.91038 24.5554 9.58338 24.9218 8.98278C24.9218 8.98278 28.8746 3.16633 29.2676 1.25695C29.3996 0.574696 29.1113 0.191173 28.4303 0.191173L24.0822 0.191566V0.191566Z" fill="#231F20"/>
</svg>
