<svg width="25" height="23" viewBox="0 0 25 23" fill="none" xmlns="http://www.w3.org/2000/svg">
<path d="M0.811822 4.54194H4.06187C4.51025 4.54194 4.87369 4.1759 4.87369 3.72432V0.817625C4.87369 0.366041 4.51025 0 4.06187 0H0.811822C0.363398 0 0 0.366041 0 0.817625V3.72432C0 4.1759 0.363398 4.54194 0.811822 4.54194Z" fill="#231F20"/>
<path d="M0.811822 23H4.06187C4.51025 23 4.87369 22.6339 4.87369 22.1823V7.8749C4.87369 7.42327 4.51025 7.05727 4.06187 7.05727H0.811822C0.363398 7.05727 0 7.42327 0 7.8749V22.1823C0 22.6339 0.363398 23 0.811822 23Z" fill="#231F20"/>
<path d="M21.7566 7.22312C22.6471 7.61339 23.3205 8.1113 23.7772 8.71675C24.2342 9.32253 24.5523 10.0097 24.7313 10.7783C24.9104 11.5468 25 12.6474 25 14.0797V22.1823C25 22.6339 24.6366 23 24.1882 23H20.9382C20.4898 23 20.1264 22.6339 20.1264 22.1823V16.1411C20.1264 14.138 20.0224 12.8425 19.8142 12.2543C19.606 11.6661 19.2678 11.2092 18.7994 10.8831C18.3311 10.5569 17.7673 10.3938 17.1083 10.3938C16.2641 10.3938 15.5068 10.6269 14.8361 11.0927C14.1655 11.5585 13.7057 12.1757 13.4572 12.9443C13.2086 13.7128 13.0843 15.1337 13.0843 17.2066V22.1823C13.0843 22.6339 12.721 23 12.2725 23H9.02248C8.5741 23 8.21066 22.6339 8.21066 22.1823V7.8749C8.21066 7.42327 8.57405 7.05727 9.02248 7.05727H11.9257C12.3741 7.05727 12.7375 7.42327 12.7375 7.8749V8.96486C12.7375 9.41649 12.9569 9.48951 13.2587 9.15554C14.7752 7.47706 16.625 6.63798 18.808 6.63798C19.8834 6.63798 20.8662 6.83312 21.7566 7.22312Z" fill="#231F20"/>
</svg>
