<svg width="29" height="21" viewBox="0 0 29 21" fill="none" xmlns="http://www.w3.org/2000/svg">
<path d="M28.403 3.28565C28.2369 2.65061 27.9127 2.07166 27.4628 1.60648C27.0128 1.14131 26.4528 0.806158 25.8385 0.634419C23.5749 5.88549e-08 14.5036 0 14.5036 0C14.5036 0 5.42989 0 3.17102 0.624545C2.55538 0.796687 1.99436 1.13317 1.54424 1.60025C1.09412 2.06732 0.770727 2.64856 0.606505 3.28565C0 5.62584 0 10.5062 0 10.5062C0 10.5062 0 15.384 0.606505 17.7242C0.772188 18.3595 1.09623 18.9387 1.54626 19.4039C1.99628 19.8692 2.55653 20.2042 3.17102 20.3755C5.43228 21 14.5036 21 14.5036 21C14.5036 21 23.5773 21 25.8385 20.3755C26.4528 20.2037 27.0128 19.8686 27.4628 19.4034C27.9127 18.9382 28.2369 18.3593 28.403 17.7242C29 15.384 29 10.5062 29 10.5062C29 10.5062 29 5.62584 28.403 3.28565ZM11.6024 15.0039V6.00599L19.1383 10.5062L11.6024 15.0039Z" fill="#231F20"/>
</svg>
