<svg width="24" height="24" viewBox="0 0 24 24" fill="none" xmlns="http://www.w3.org/2000/svg">
<path fill-rule="evenodd" clip-rule="evenodd" d="M12.0037 5.83594C8.6007 5.83594 5.8457 8.59394 5.8457 11.9939C5.8457 15.3969 8.6037 18.1519 12.0037 18.1519C15.4067 18.1519 18.1617 15.3939 18.1617 11.9939C18.1617 8.59094 15.4037 5.83594 12.0037 5.83594ZM12.0037 15.9909C9.7947 15.9909 8.0067 14.2019 8.0067 11.9939C8.0067 9.78594 9.7957 7.99694 12.0037 7.99694C14.2117 7.99694 16.0007 9.78594 16.0007 11.9939C16.0017 14.2019 14.2127 15.9909 12.0037 15.9909Z" fill="#231F20"/>
<path d="M19.8448 5.59525C19.8448 6.38999 19.2005 7.03425 18.4058 7.03425C17.6111 7.03425 16.9668 6.38999 16.9668 5.59525C16.9668 4.80051 17.6111 4.15625 18.4058 4.15625C19.2005 4.15625 19.8448 4.80051 19.8448 5.59525Z" fill="#231F20"/>
<path fill-rule="evenodd" clip-rule="evenodd" d="M16.9482 0.0753867C14.7402 -0.0276133 9.27123 -0.0226133 7.06123 0.0753867C5.11923 0.166387 3.40623 0.635386 2.02523 2.01639C-0.0400825 4.0817 -0.0210312 6.78921 0.00581128 10.604C0.00896548 11.0522 0.0122273 11.5158 0.0122273 11.9954C0.0122273 12.4443 0.00982315 12.8781 0.00749831 13.2976C-0.0143539 17.2406 -0.0292029 19.92 2.02523 21.9744C4.09432 24.0426 6.83168 24.0222 10.6034 23.9942C11.0552 23.9909 11.522 23.9874 12.0042 23.9874H12.0693C16.6432 23.9874 18.2319 23.9874 19.8592 23.3574C22.0822 22.4944 23.7602 20.5074 23.9242 16.9384C24.0282 14.7294 24.0222 9.26139 23.9242 7.05139C23.7262 2.83839 21.4652 0.283387 16.9482 0.0753867ZM20.4432 20.4474C19.0498 21.8408 17.1594 21.8364 13.0762 21.827C12.7257 21.8262 12.3591 21.8254 11.9752 21.8254C11.7397 21.8254 11.5109 21.8256 11.2884 21.8257C6.78757 21.8289 4.90132 21.8303 3.50723 20.4324C2.05689 18.9889 2.08087 16.7928 2.11568 13.6054C2.12131 13.0897 2.12723 12.548 2.12723 11.9794C2.12723 11.4972 2.12291 11.0268 2.11871 10.5696C2.07481 5.78803 2.04417 2.4506 7.10523 2.19139L7.16261 2.18936C8.39126 2.14593 8.80289 2.13139 11.9612 2.13139L12.0062 2.16139C12.4628 2.16139 12.911 2.15729 13.3491 2.15329C18.0229 2.11056 21.5377 2.07843 21.7672 7.14739C21.8242 8.41239 21.8372 8.79239 21.8372 11.9944C21.8372 12.2819 21.8374 12.5594 21.8377 12.8276V12.8289C21.8418 17.1696 21.8436 19.0404 20.4432 20.4474Z" fill="#231F20"/>
</svg>
